<svg width="24" height="24" viewBox="0 0 24 24" fill="none" xmlns="http://www.w3.org/2000/svg">
<path fill-rule="evenodd" clip-rule="evenodd" d="M4.22181 4.22183C-0.0915395 8.53518 -0.0915395 15.4648 4.22181 19.7782C8.53516 24.0915 15.4648 24.0915 19.7782 19.7782C24.0915 15.4648 24.0915 8.53518 19.7782 4.22183C15.4648 -0.091526 8.53516 -0.0915257 4.22181 4.22183ZM8.18161 9.17157C8.18161 9.73726 8.60587 10.1615 9.17156 10.1615H12.4243L8.46445 14.1213C8.04019 14.5456 8.04019 15.1113 8.46445 15.5355C8.88872 15.9598 9.4544 15.9598 9.87867 15.5355L13.8385 11.5757V14.8284C13.8385 15.3941 14.2627 15.8184 14.8284 15.8184C15.3941 15.8184 15.8184 15.3941 15.8184 14.8284V9.17157C15.8184 9.03015 15.8184 8.88873 15.7477 8.81802C15.7477 8.6766 15.6062 8.53518 15.5355 8.46447C15.4648 8.39376 15.3234 8.25233 15.182 8.25233C15.1113 8.18162 14.9698 8.18162 14.8284 8.18162H9.17156C8.60587 8.18162 8.18161 8.60589 8.18161 9.17157ZM18.3639 5.63604C14.8284 2.10051 9.17156 2.10051 5.63603 5.63604C2.10049 9.17157 2.10049 14.8284 5.63603 18.364C9.17156 21.8995 14.8284 21.8995 18.3639 18.364C21.8995 14.8284 21.8995 9.17157 18.3639 5.63604Z" fill="black"/>
<mask id="mask0_160_9077" style="mask-type:luminance" maskUnits="userSpaceOnUse" x="0" y="0" width="24" height="24">
<path fill-rule="evenodd" clip-rule="evenodd" d="M4.22181 4.22183C-0.0915395 8.53518 -0.0915395 15.4648 4.22181 19.7782C8.53516 24.0915 15.4648 24.0915 19.7782 19.7782C24.0915 15.4648 24.0915 8.53518 19.7782 4.22183C15.4648 -0.091526 8.53516 -0.0915257 4.22181 4.22183ZM8.18161 9.17157C8.18161 9.73726 8.60587 10.1615 9.17156 10.1615H12.4243L8.46445 14.1213C8.04019 14.5456 8.04019 15.1113 8.46445 15.5355C8.88872 15.9598 9.4544 15.9598 9.87867 15.5355L13.8385 11.5757V14.8284C13.8385 15.3941 14.2627 15.8184 14.8284 15.8184C15.3941 15.8184 15.8184 15.3941 15.8184 14.8284V9.17157C15.8184 9.03015 15.8184 8.88873 15.7477 8.81802C15.7477 8.6766 15.6062 8.53518 15.5355 8.46447C15.4648 8.39376 15.3234 8.25233 15.182 8.25233C15.1113 8.18162 14.9698 8.18162 14.8284 8.18162H9.17156C8.60587 8.18162 8.18161 8.60589 8.18161 9.17157ZM18.3639 5.63604C14.8284 2.10051 9.17156 2.10051 5.63603 5.63604C2.10049 9.17157 2.10049 14.8284 5.63603 18.364C9.17156 21.8995 14.8284 21.8995 18.3639 18.364C21.8995 14.8284 21.8995 9.17157 18.3639 5.63604Z" fill="white"/>
</mask>
<g mask="url(#mask0_160_9077)">
<rect width="24" height="24" fill="#347AF0"/>
</g>
</svg>
