<svg width="24" height="24" viewBox="0 0 24 24" fill="none" xmlns="http://www.w3.org/2000/svg">
<path fill-rule="evenodd" clip-rule="evenodd" d="M19.7782 4.22183C24.0915 8.53518 24.0915 15.4648 19.7782 19.7782C15.4648 24.0915 8.53519 24.0915 4.22184 19.7782C-0.0915122 15.4648 -0.0915122 8.53518 4.22184 4.22183C8.53519 -0.091526 15.4648 -0.0915257 19.7782 4.22183ZM15.8184 9.17157C15.8184 9.73726 15.3941 10.1615 14.8284 10.1615H11.5757L15.5355 14.1213C15.9598 14.5456 15.9598 15.1113 15.5355 15.5355C15.1113 15.9598 14.5456 15.9598 14.1213 15.5355L10.1615 11.5757V14.8284C10.1615 15.3941 9.73727 15.8184 9.17159 15.8184C8.6059 15.8184 8.18164 15.3941 8.18164 14.8284V9.17157C8.18164 9.03015 8.18164 8.88873 8.25235 8.81802C8.25235 8.6766 8.39377 8.53518 8.46448 8.46447C8.53519 8.39376 8.67661 8.25233 8.81803 8.25233C8.88874 8.18162 9.03016 8.18162 9.17159 8.18162H14.8284C15.3941 8.18162 15.8184 8.60589 15.8184 9.17157ZM5.63605 5.63604C9.17159 2.10051 14.8284 2.10051 18.364 5.63604C21.8995 9.17157 21.8995 14.8284 18.364 18.364C14.8284 21.8995 9.17159 21.8995 5.63605 18.364C2.10052 14.8284 2.10052 9.17157 5.63605 5.63604Z" fill="black"/>
<mask id="mask0_160_9111" style="mask-type:luminance" maskUnits="userSpaceOnUse" x="0" y="0" width="24" height="24">
<path fill-rule="evenodd" clip-rule="evenodd" d="M19.7782 4.22183C24.0915 8.53518 24.0915 15.4648 19.7782 19.7782C15.4648 24.0915 8.53519 24.0915 4.22184 19.7782C-0.0915122 15.4648 -0.0915122 8.53518 4.22184 4.22183C8.53519 -0.091526 15.4648 -0.0915257 19.7782 4.22183ZM15.8184 9.17157C15.8184 9.73726 15.3941 10.1615 14.8284 10.1615H11.5757L15.5355 14.1213C15.9598 14.5456 15.9598 15.1113 15.5355 15.5355C15.1113 15.9598 14.5456 15.9598 14.1213 15.5355L10.1615 11.5757V14.8284C10.1615 15.3941 9.73727 15.8184 9.17159 15.8184C8.6059 15.8184 8.18164 15.3941 8.18164 14.8284V9.17157C8.18164 9.03015 8.18164 8.88873 8.25235 8.81802C8.25235 8.6766 8.39377 8.53518 8.46448 8.46447C8.53519 8.39376 8.67661 8.25233 8.81803 8.25233C8.88874 8.18162 9.03016 8.18162 9.17159 8.18162H14.8284C15.3941 8.18162 15.8184 8.60589 15.8184 9.17157ZM5.63605 5.63604C9.17159 2.10051 14.8284 2.10051 18.364 5.63604C21.8995 9.17157 21.8995 14.8284 18.364 18.364C14.8284 21.8995 9.17159 21.8995 5.63605 18.364C2.10052 14.8284 2.10052 9.17157 5.63605 5.63604Z" fill="white"/>
</mask>
<g mask="url(#mask0_160_9111)">
<rect width="24" height="24" fill="#DF5060"/>
</g>
</svg>
