<svg width="64" height="64" viewBox="0 0 64 64" fill="none" xmlns="http://www.w3.org/2000/svg">
<path fill-rule="evenodd" clip-rule="evenodd" d="M32 62C48.5685 62 62 48.5685 62 32C62 15.4315 48.5685 2 32 2C15.4315 2 2 15.4315 2 32C2 48.5685 15.4315 62 32 62Z" fill="#75BF72" stroke="white" stroke-width="4"/>
<path fill-rule="evenodd" clip-rule="evenodd" d="M22.2772 41.7227C16.8855 36.331 16.8855 27.669 22.2772 22.2773C27.6688 16.8856 36.3309 16.8856 41.7226 22.2773C47.1143 27.669 47.1143 36.331 41.7226 41.7227C36.3309 47.1144 27.6688 47.1144 22.2772 41.7227ZM28.4643 36.773C27.7572 36.773 27.2269 36.2426 27.2269 35.5355C27.2269 34.8284 27.7572 34.2981 28.4643 34.2981L32.5302 34.2981L27.5804 29.3483C27.0501 28.818 27.0501 28.1109 27.5804 27.5806C28.1108 27.0503 28.8179 27.0503 29.3482 27.5806L34.298 32.5303V28.4645C34.298 27.7574 34.8283 27.227 35.5354 27.227C36.2425 27.227 36.7728 27.7574 36.7728 28.4645V35.5355C36.7728 35.7123 36.7728 35.8891 36.6844 35.9775C36.6844 36.1543 36.5077 36.331 36.4193 36.4194C36.3309 36.5078 36.1541 36.6846 35.9773 36.6846C35.8889 36.773 35.7122 36.773 35.5354 36.773L28.4643 36.773ZM39.9548 39.9549C35.5354 44.3744 28.4643 44.3744 24.0449 39.9549C19.6255 35.5355 19.6255 28.4645 24.0449 24.045C28.4643 19.6256 35.5354 19.6256 39.9548 24.045C44.3742 28.4645 44.3742 35.5355 39.9548 39.9549Z" fill="black"/>
<mask id="mask0_0_10620" style="mask-type:luminance" maskUnits="userSpaceOnUse" x="18" y="18" width="28" height="28">
<path fill-rule="evenodd" clip-rule="evenodd" d="M22.2772 41.7227C16.8855 36.331 16.8855 27.669 22.2772 22.2773C27.6688 16.8856 36.3309 16.8856 41.7226 22.2773C47.1143 27.669 47.1143 36.331 41.7226 41.7227C36.3309 47.1144 27.6688 47.1144 22.2772 41.7227ZM28.4643 36.773C27.7572 36.773 27.2269 36.2426 27.2269 35.5355C27.2269 34.8284 27.7572 34.2981 28.4643 34.2981L32.5302 34.2981L27.5804 29.3483C27.0501 28.818 27.0501 28.1109 27.5804 27.5806C28.1108 27.0503 28.8179 27.0503 29.3482 27.5806L34.298 32.5303V28.4645C34.298 27.7574 34.8283 27.227 35.5354 27.227C36.2425 27.227 36.7728 27.7574 36.7728 28.4645V35.5355C36.7728 35.7123 36.7728 35.8891 36.6844 35.9775C36.6844 36.1543 36.5077 36.331 36.4193 36.4194C36.3309 36.5078 36.1541 36.6846 35.9773 36.6846C35.8889 36.773 35.7122 36.773 35.5354 36.773L28.4643 36.773ZM39.9548 39.9549C35.5354 44.3744 28.4643 44.3744 24.0449 39.9549C19.6255 35.5355 19.6255 28.4645 24.0449 24.045C28.4643 19.6256 35.5354 19.6256 39.9548 24.045C44.3742 28.4645 44.3742 35.5355 39.9548 39.9549Z" fill="white"/>
</mask>
<g mask="url(#mask0_0_10620)">
<rect x="47" y="47" width="30" height="30" transform="rotate(180 47 47)" fill="white"/>
</g>
</svg>
