<svg width="64" height="64" viewBox="0 0 64 64" fill="none" xmlns="http://www.w3.org/2000/svg">
<path fill-rule="evenodd" clip-rule="evenodd" d="M32 62C48.5685 62 62 48.5685 62 32C62 15.4315 48.5685 2 32 2C15.4315 2 2 15.4315 2 32C2 48.5685 15.4315 62 32 62Z" fill="#347AF0" stroke="white" stroke-width="4"/>
<path fill-rule="evenodd" clip-rule="evenodd" d="M42.8333 22.25V27.6666C42.8333 28.3166 42.4 28.75 41.75 28.75C41.1 28.75 40.6667 28.3166 40.6667 27.6666V24.85L24.0917 41.425C23.875 41.6416 23.6583 41.75 23.3333 41.75C23.0083 41.75 22.7917 41.6416 22.575 41.425C22.1417 40.9916 22.1417 40.3416 22.575 39.9083L39.15 23.3333H36.3333C35.6833 23.3333 35.25 22.9 35.25 22.25C35.25 21.6 35.6833 21.1666 36.3333 21.1666H41.75C41.8583 21.1666 42.075 21.1666 42.1833 21.275C42.4 21.3833 42.6167 21.6 42.725 21.8166C42.8333 21.925 42.8333 22.1416 42.8333 22.25ZM41.75 35.25C41.1 35.25 40.6667 35.6833 40.6667 36.3333V39.15L36.0083 34.4916C35.575 34.0583 34.925 34.0583 34.4917 34.4916C34.0583 34.925 34.0583 35.575 34.4917 36.0083L39.15 40.6666H36.3333C35.6833 40.6666 35.25 41.1 35.25 41.75C35.25 42.4 35.6833 42.8333 36.3333 42.8333H41.75C41.8583 42.8333 42.075 42.8333 42.1833 42.725C42.4 42.6166 42.6167 42.4 42.725 42.1833C42.8333 42.075 42.8333 41.8583 42.8333 41.75V36.3333C42.8333 35.6833 42.4 35.25 41.75 35.25ZM28.75 29.8333C28.425 29.8333 28.2083 29.725 27.9917 29.5083L22.575 24.0916C22.1417 23.6583 22.1417 23.0083 22.575 22.575C23.0083 22.1416 23.6583 22.1416 24.0917 22.575L29.5083 27.9916C29.9417 28.425 29.9417 29.075 29.5083 29.5083C29.2917 29.725 29.075 29.8333 28.75 29.8333Z" fill="black"/>
<mask id="mask0_0_10624" style="mask-type:luminance" maskUnits="userSpaceOnUse" x="22" y="21" width="21" height="22">
<path fill-rule="evenodd" clip-rule="evenodd" d="M42.8333 22.25V27.6666C42.8333 28.3166 42.4 28.75 41.75 28.75C41.1 28.75 40.6667 28.3166 40.6667 27.6666V24.85L24.0917 41.425C23.875 41.6416 23.6583 41.75 23.3333 41.75C23.0083 41.75 22.7917 41.6416 22.575 41.425C22.1417 40.9916 22.1417 40.3416 22.575 39.9083L39.15 23.3333H36.3333C35.6833 23.3333 35.25 22.9 35.25 22.25C35.25 21.6 35.6833 21.1666 36.3333 21.1666H41.75C41.8583 21.1666 42.075 21.1666 42.1833 21.275C42.4 21.3833 42.6167 21.6 42.725 21.8166C42.8333 21.925 42.8333 22.1416 42.8333 22.25ZM41.75 35.25C41.1 35.25 40.6667 35.6833 40.6667 36.3333V39.15L36.0083 34.4916C35.575 34.0583 34.925 34.0583 34.4917 34.4916C34.0583 34.925 34.0583 35.575 34.4917 36.0083L39.15 40.6666H36.3333C35.6833 40.6666 35.25 41.1 35.25 41.75C35.25 42.4 35.6833 42.8333 36.3333 42.8333H41.75C41.8583 42.8333 42.075 42.8333 42.1833 42.725C42.4 42.6166 42.6167 42.4 42.725 42.1833C42.8333 42.075 42.8333 41.8583 42.8333 41.75V36.3333C42.8333 35.6833 42.4 35.25 41.75 35.25ZM28.75 29.8333C28.425 29.8333 28.2083 29.725 27.9917 29.5083L22.575 24.0916C22.1417 23.6583 22.1417 23.0083 22.575 22.575C23.0083 22.1416 23.6583 22.1416 24.0917 22.575L29.5083 27.9916C29.9417 28.425 29.9417 29.075 29.5083 29.5083C29.2917 29.725 29.075 29.8333 28.75 29.8333Z" fill="white"/>
</mask>
<g mask="url(#mask0_0_10624)">
<rect x="19" y="19" width="26" height="26" fill="white"/>
</g>
</svg>
