<svg width="64" height="64" viewBox="0 0 64 64" fill="none" xmlns="http://www.w3.org/2000/svg">
<path fill-rule="evenodd" clip-rule="evenodd" d="M32 62C48.5685 62 62 48.5685 62 32C62 15.4315 48.5685 2 32 2C15.4315 2 2 15.4315 2 32C2 48.5685 15.4315 62 32 62Z" fill="#FFA500" stroke="white" stroke-width="4"/>
<path fill-rule="evenodd" clip-rule="evenodd" d="M37.1838 14.0705C36.2845 13.8042 35.3391 14.3152 35.0693 15.2135L30.6345 30.7582L21.8677 38.4277C21.159 39.055 21.0876 40.1359 21.7077 40.8509C22.3349 41.5596 23.4158 41.6309 24.1308 41.0109L33.2748 33.0099C33.5229 32.7917 33.7017 32.5057 33.7891 32.187L38.3611 16.1851C38.4877 15.7485 38.4345 15.2794 38.2134 14.8823C37.9923 14.4851 37.6216 14.1929 37.1838 14.0705Z" fill="white"/>
</svg>
