<svg width="64" height="64" viewBox="0 0 64 64" fill="none" xmlns="http://www.w3.org/2000/svg">
<path fill-rule="evenodd" clip-rule="evenodd" d="M32 62C48.5685 62 62 48.5685 62 32C62 15.4315 48.5685 2 32 2C15.4315 2 2 15.4315 2 32C2 48.5685 15.4315 62 32 62Z" fill="#347AF0" stroke="white" stroke-width="4"/>
<path fill-rule="evenodd" clip-rule="evenodd" d="M22.2772 22.2773C16.8855 27.669 16.8855 36.331 22.2772 41.7227C27.6688 47.1144 36.3309 47.1144 41.7226 41.7227C47.1143 36.331 47.1143 27.669 41.7226 22.2773C36.3309 16.8856 27.6688 16.8856 22.2772 22.2773ZM28.4643 27.227C27.7572 27.227 27.2269 27.7574 27.2269 28.4645C27.2269 29.1716 27.7572 29.7019 28.4643 29.7019L32.5302 29.7019L27.5804 34.6517C27.0501 35.182 27.0501 35.8891 27.5804 36.4194C28.1108 36.9497 28.8179 36.9497 29.3482 36.4194L34.298 31.4697V35.5355C34.298 36.2426 34.8283 36.773 35.5354 36.773C36.2425 36.773 36.7728 36.2426 36.7728 35.5355V28.4645C36.7728 28.2877 36.7728 28.1109 36.6844 28.0225C36.6844 27.8457 36.5077 27.669 36.4193 27.5806C36.3309 27.4922 36.1541 27.3154 35.9773 27.3154C35.8889 27.227 35.7122 27.227 35.5354 27.227L28.4643 27.227ZM39.9548 24.0451C35.5354 19.6256 28.4643 19.6256 24.0449 24.0451C19.6255 28.4645 19.6255 35.5355 24.0449 39.955C28.4643 44.3744 35.5354 44.3744 39.9548 39.955C44.3742 35.5355 44.3742 28.4645 39.9548 24.0451Z" fill="black"/>
<mask id="mask0_0_10616" style="mask-type:luminance" maskUnits="userSpaceOnUse" x="18" y="18" width="28" height="28">
<path fill-rule="evenodd" clip-rule="evenodd" d="M22.2772 22.2773C16.8855 27.669 16.8855 36.331 22.2772 41.7227C27.6688 47.1144 36.3309 47.1144 41.7226 41.7227C47.1143 36.331 47.1143 27.669 41.7226 22.2773C36.3309 16.8856 27.6688 16.8856 22.2772 22.2773ZM28.4643 27.227C27.7572 27.227 27.2269 27.7574 27.2269 28.4645C27.2269 29.1716 27.7572 29.7019 28.4643 29.7019L32.5302 29.7019L27.5804 34.6517C27.0501 35.182 27.0501 35.8891 27.5804 36.4194C28.1108 36.9497 28.8179 36.9497 29.3482 36.4194L34.298 31.4697V35.5355C34.298 36.2426 34.8283 36.773 35.5354 36.773C36.2425 36.773 36.7728 36.2426 36.7728 35.5355V28.4645C36.7728 28.2877 36.7728 28.1109 36.6844 28.0225C36.6844 27.8457 36.5077 27.669 36.4193 27.5806C36.3309 27.4922 36.1541 27.3154 35.9773 27.3154C35.8889 27.227 35.7122 27.227 35.5354 27.227L28.4643 27.227ZM39.9548 24.0451C35.5354 19.6256 28.4643 19.6256 24.0449 24.0451C19.6255 28.4645 19.6255 35.5355 24.0449 39.955C28.4643 44.3744 35.5354 44.3744 39.9548 39.955C44.3742 35.5355 44.3742 28.4645 39.9548 24.0451Z" fill="white"/>
</mask>
<g mask="url(#mask0_0_10616)">
<rect width="30" height="30" transform="matrix(-1 0 0 1 47 17)" fill="white"/>
</g>
</svg>
