<svg width="22" height="22" viewBox="0 0 22 22" fill="none" xmlns="http://www.w3.org/2000/svg">
<path fill-rule="evenodd" clip-rule="evenodd" d="M20.1667 2.75V7.33333C20.1667 7.88333 19.8 8.25 19.25 8.25C18.7 8.25 18.3333 7.88333 18.3333 7.33333V4.95L4.30833 18.975C4.125 19.1583 3.94167 19.25 3.66667 19.25C3.39167 19.25 3.20833 19.1583 3.025 18.975C2.65833 18.6083 2.65833 18.0583 3.025 17.6917L17.05 3.66667H14.6667C14.1167 3.66667 13.75 3.3 13.75 2.75C13.75 2.2 14.1167 1.83333 14.6667 1.83333H19.25C19.3417 1.83333 19.525 1.83333 19.6167 1.925C19.8 2.01667 19.9833 2.2 20.075 2.38333C20.1667 2.475 20.1667 2.65833 20.1667 2.75ZM19.25 13.75C18.7 13.75 18.3333 14.1167 18.3333 14.6667V17.05L14.3917 13.1083C14.025 12.7417 13.475 12.7417 13.1083 13.1083C12.7417 13.475 12.7417 14.025 13.1083 14.3917L17.05 18.3333H14.6667C14.1167 18.3333 13.75 18.7 13.75 19.25C13.75 19.8 14.1167 20.1667 14.6667 20.1667H19.25C19.3417 20.1667 19.525 20.1667 19.6167 20.075C19.8 19.9833 19.9833 19.8 20.075 19.6167C20.1667 19.525 20.1667 19.3417 20.1667 19.25V14.6667C20.1667 14.1167 19.8 13.75 19.25 13.75ZM8.25 9.16667C7.975 9.16667 7.79167 9.075 7.60833 8.89167L3.025 4.30833C2.65833 3.94167 2.65833 3.39167 3.025 3.025C3.39167 2.65833 3.94167 2.65833 4.30833 3.025L8.89167 7.60833C9.25833 7.975 9.25833 8.525 8.89167 8.89167C8.70833 9.075 8.525 9.16667 8.25 9.16667Z" fill="black"/>
<mask id="mask0_182_5442" style="mask-type:luminance" maskUnits="userSpaceOnUse" x="2" y="1" width="19" height="20">
<path fill-rule="evenodd" clip-rule="evenodd" d="M20.1667 2.75V7.33333C20.1667 7.88333 19.8 8.25 19.25 8.25C18.7 8.25 18.3333 7.88333 18.3333 7.33333V4.95L4.30833 18.975C4.125 19.1583 3.94167 19.25 3.66667 19.25C3.39167 19.25 3.20833 19.1583 3.025 18.975C2.65833 18.6083 2.65833 18.0583 3.025 17.6917L17.05 3.66667H14.6667C14.1167 3.66667 13.75 3.3 13.75 2.75C13.75 2.2 14.1167 1.83333 14.6667 1.83333H19.25C19.3417 1.83333 19.525 1.83333 19.6167 1.925C19.8 2.01667 19.9833 2.2 20.075 2.38333C20.1667 2.475 20.1667 2.65833 20.1667 2.75ZM19.25 13.75C18.7 13.75 18.3333 14.1167 18.3333 14.6667V17.05L14.3917 13.1083C14.025 12.7417 13.475 12.7417 13.1083 13.1083C12.7417 13.475 12.7417 14.025 13.1083 14.3917L17.05 18.3333H14.6667C14.1167 18.3333 13.75 18.7 13.75 19.25C13.75 19.8 14.1167 20.1667 14.6667 20.1667H19.25C19.3417 20.1667 19.525 20.1667 19.6167 20.075C19.8 19.9833 19.9833 19.8 20.075 19.6167C20.1667 19.525 20.1667 19.3417 20.1667 19.25V14.6667C20.1667 14.1167 19.8 13.75 19.25 13.75ZM8.25 9.16667C7.975 9.16667 7.79167 9.075 7.60833 8.89167L3.025 4.30833C2.65833 3.94167 2.65833 3.39167 3.025 3.025C3.39167 2.65833 3.94167 2.65833 4.30833 3.025L8.89167 7.60833C9.25833 7.975 9.25833 8.525 8.89167 8.89167C8.70833 9.075 8.525 9.16667 8.25 9.16667Z" fill="white"/>
</mask>
<g mask="url(#mask0_182_5442)">
<rect width="22" height="22" fill="#0D1F3C"/>
</g>
</svg>
