<svg width="64" height="64" viewBox="0 0 64 64" fill="none" xmlns="http://www.w3.org/2000/svg">
<path fill-rule="evenodd" clip-rule="evenodd" d="M32 62C48.5685 62 62 48.5685 62 32C62 15.4315 48.5685 2 32 2C15.4315 2 2 15.4315 2 32C2 48.5685 15.4315 62 32 62Z" fill="#DF5060" stroke="white" stroke-width="4"/>
<path fill-rule="evenodd" clip-rule="evenodd" d="M41.7228 22.2773C47.1145 27.669 47.1145 36.331 41.7228 41.7227C36.3312 47.1144 27.6691 47.1144 22.2774 41.7227C16.8857 36.331 16.8857 27.669 22.2774 22.2773C27.6691 16.8856 36.3312 16.8856 41.7228 22.2773ZM35.5357 27.227C36.2428 27.227 36.7731 27.7574 36.7731 28.4645C36.7731 29.1716 36.2428 29.7019 35.5357 29.7019L31.4698 29.7019L36.4196 34.6517C36.9499 35.182 36.9499 35.8891 36.4196 36.4194C35.8892 36.9497 35.1821 36.9497 34.6518 36.4194L29.702 31.4697V35.5355C29.702 36.2426 29.1717 36.773 28.4646 36.773C27.7575 36.773 27.2272 36.2426 27.2272 35.5355V28.4645C27.2272 28.2877 27.2272 28.1109 27.3156 28.0225C27.3156 27.8457 27.4923 27.669 27.5807 27.5806C27.6691 27.4922 27.8459 27.3154 28.0227 27.3154C28.1111 27.227 28.2878 27.227 28.4646 27.227L35.5357 27.227ZM24.0452 24.0451C28.4646 19.6256 35.5357 19.6256 39.9551 24.0451C44.3745 28.4645 44.3745 35.5355 39.9551 39.955C35.5357 44.3744 28.4646 44.3744 24.0452 39.955C19.6258 35.5355 19.6258 28.4645 24.0452 24.0451Z" fill="black"/>
<mask id="mask0_0_10606" style="mask-type:luminance" maskUnits="userSpaceOnUse" x="18" y="18" width="28" height="28">
<path fill-rule="evenodd" clip-rule="evenodd" d="M41.7228 22.2773C47.1145 27.669 47.1145 36.331 41.7228 41.7227C36.3312 47.1144 27.6691 47.1144 22.2774 41.7227C16.8857 36.331 16.8857 27.669 22.2774 22.2773C27.6691 16.8856 36.3312 16.8856 41.7228 22.2773ZM35.5357 27.227C36.2428 27.227 36.7731 27.7574 36.7731 28.4645C36.7731 29.1716 36.2428 29.7019 35.5357 29.7019L31.4698 29.7019L36.4196 34.6517C36.9499 35.182 36.9499 35.8891 36.4196 36.4194C35.8892 36.9497 35.1821 36.9497 34.6518 36.4194L29.702 31.4697V35.5355C29.702 36.2426 29.1717 36.773 28.4646 36.773C27.7575 36.773 27.2272 36.2426 27.2272 35.5355V28.4645C27.2272 28.2877 27.2272 28.1109 27.3156 28.0225C27.3156 27.8457 27.4923 27.669 27.5807 27.5806C27.6691 27.4922 27.8459 27.3154 28.0227 27.3154C28.1111 27.227 28.2878 27.227 28.4646 27.227L35.5357 27.227ZM24.0452 24.0451C28.4646 19.6256 35.5357 19.6256 39.9551 24.0451C44.3745 28.4645 44.3745 35.5355 39.9551 39.955C35.5357 44.3744 28.4646 44.3744 24.0452 39.955C19.6258 35.5355 19.6258 28.4645 24.0452 24.0451Z" fill="white"/>
</mask>
<g mask="url(#mask0_0_10606)">
<rect x="17" y="17" width="30" height="30" fill="white"/>
</g>
</svg>
