<svg width="28" height="28" viewBox="0 0 28 28" fill="none" xmlns="http://www.w3.org/2000/svg">
<path fill-rule="evenodd" clip-rule="evenodd" d="M23.0746 4.92546C28.1068 9.95771 28.1068 18.0423 23.0746 23.0745C18.0423 28.1068 9.95773 28.1068 4.92549 23.0745C-0.106754 18.0423 -0.106754 9.95771 4.92549 4.92546C9.95773 -0.10678 18.0423 -0.106781 23.0746 4.92546ZM17.2999 9.54523C17.9598 9.54523 18.4548 10.0402 18.4548 10.7002C18.4548 11.3601 17.9598 11.8551 17.2999 11.8551H13.5051L18.1248 16.4749C18.6198 16.9698 18.6198 17.6298 18.1248 18.1248C17.6299 18.6198 16.9699 18.6198 16.4749 18.1248L11.8551 13.505V17.2998C11.8551 17.9598 11.3602 18.4548 10.7002 18.4548C10.0402 18.4548 9.54527 17.9598 9.54527 17.2998L9.54527 10.7002C9.54527 10.5352 9.54527 10.3702 9.62776 10.2877C9.62776 10.1227 9.79275 9.95771 9.87525 9.87521C9.95774 9.79271 10.1227 9.62772 10.2877 9.62772C10.3702 9.54523 10.5352 9.54523 10.7002 9.54523L17.2999 9.54523ZM6.57544 6.57538C10.7002 2.45059 17.2999 2.45059 21.4247 6.57538C25.5495 10.7002 25.5495 17.2998 21.4247 21.4246C17.2999 25.5494 10.7002 25.5494 6.57543 21.4246C2.45065 17.2998 2.45065 10.7002 6.57544 6.57538Z" fill="black"/>
<mask id="mask0_0_5296" style="mask-type:luminance" maskUnits="userSpaceOnUse" x="1" y="1" width="26" height="26">
<path fill-rule="evenodd" clip-rule="evenodd" d="M23.0746 4.92546C28.1068 9.95771 28.1068 18.0423 23.0746 23.0745C18.0423 28.1068 9.95773 28.1068 4.92549 23.0745C-0.106754 18.0423 -0.106754 9.95771 4.92549 4.92546C9.95773 -0.10678 18.0423 -0.106781 23.0746 4.92546ZM17.2999 9.54523C17.9598 9.54523 18.4548 10.0402 18.4548 10.7002C18.4548 11.3601 17.9598 11.8551 17.2999 11.8551H13.5051L18.1248 16.4749C18.6198 16.9698 18.6198 17.6298 18.1248 18.1248C17.6299 18.6198 16.9699 18.6198 16.4749 18.1248L11.8551 13.505V17.2998C11.8551 17.9598 11.3602 18.4548 10.7002 18.4548C10.0402 18.4548 9.54527 17.9598 9.54527 17.2998L9.54527 10.7002C9.54527 10.5352 9.54527 10.3702 9.62776 10.2877C9.62776 10.1227 9.79275 9.95771 9.87525 9.87521C9.95774 9.79271 10.1227 9.62772 10.2877 9.62772C10.3702 9.54523 10.5352 9.54523 10.7002 9.54523L17.2999 9.54523ZM6.57544 6.57538C10.7002 2.45059 17.2999 2.45059 21.4247 6.57538C25.5495 10.7002 25.5495 17.2998 21.4247 21.4246C17.2999 25.5494 10.7002 25.5494 6.57543 21.4246C2.45065 17.2998 2.45065 10.7002 6.57544 6.57538Z" fill="white"/>
</mask>
<g mask="url(#mask0_0_5296)">
<rect width="28" height="28" fill="#CFD2D8"/>
</g>
</svg>
