<svg width="375" height="180" viewBox="0 0 375 180" fill="none" xmlns="http://www.w3.org/2000/svg">
<g filter="url(#filter0_i_0_4898)">
<path d="M681 111.521C681 110.77 679.778 110.168 678.251 110.131C662.786 109.755 654.693 106.166 646.145 102.389C636.678 98.2173 626.943 93.8954 607.473 93.8954C588.004 93.8954 578.231 98.2173 568.797 102.389C559.753 106.391 551.24 110.168 533.908 110.168C517.493 110.168 508.518 98.2173 499.817 86.6797C490.426 74.2214 480.729 61.3497 460.382 61.3497C439.881 61.3497 434 84.2612 403 86.04C372 87.8187 357 68.6971 347 45.1285C334.517 15.708 322.21 14.0286 308.5 14.0002C294.79 13.9718 283.627 22.0205 274.16 28.9543C265.146 35.5687 256.637 41.826 239.763 41.826C219.946 41.826 210.177 48.2525 200.748 54.4722C191.7 60.3914 183.187 65.991 166.237 65.991C146.271 65.991 136.536 73.5261 127.064 80.817C118.059 87.7884 109.507 94.3651 92.6718 94.3651C75.8362 94.3651 67.323 87.9011 58.2753 81.0425C48.8459 73.8832 39.0729 66.4608 19.1451 66.4608C-1.6608 66.4608 -10.3649 93.0686 -20.4433 123.886C-28.4603 148.426 -38.4242 178.98 -54.3817 178.98C-70.3392 178.98 -80.3413 146.754 -88.3582 120.879C-98.4366 88.4272 -107.141 60.4101 -127.947 60.4101C-148.294 60.4101 -157.991 73.5261 -167.344 86.2099C-176.048 97.9918 -185.058 110.168 -201.473 110.168C-218.309 110.168 -226.822 103.704 -235.87 96.8455C-245.299 89.6862 -255.072 82.2639 -275 82.2639" stroke="white" stroke-width="1.5"/>
</g>
<path fill-rule="evenodd" clip-rule="evenodd" d="M196 65C200.418 65 204 61.4183 204 57C204 52.5817 200.418 49 196 49C191.582 49 188 52.5817 188 57C188 61.4183 191.582 65 196 65Z" fill="white" fill-opacity="0.3"/>
<path fill-rule="evenodd" clip-rule="evenodd" d="M196 63C199.314 63 202 60.3137 202 57C202 53.6863 199.314 51 196 51C192.686 51 190 53.6863 190 57C190 60.3137 192.686 63 196 63Z" fill="white" fill-opacity="0.5"/>
<path fill-rule="evenodd" clip-rule="evenodd" d="M196 60C197.657 60 199 58.6569 199 57C199 55.3431 197.657 54 196 54C194.343 54 193 55.3431 193 57C193 58.6569 194.343 60 196 60Z" fill="white"/>
<g clip-path="url(#clip0_0_4898)">
<path fill-rule="evenodd" clip-rule="evenodd" d="M160.5 0C149.454 0 140.5 8.95431 140.5 20V21C140.5 32.0457 149.454 41 160.5 41H190.306L195.5 46.6569L200.694 41H230.5C241.546 41 250.5 32.0457 250.5 21V20C250.5 8.95431 241.546 0 230.5 0H160.5Z" fill="white" fill-opacity="0.3"/>
<path d="M159.021 33L161.491 24.004H163.675L166.145 33H165.157L164.507 30.686H160.659L160.009 33H159.021ZM162.245 24.862L160.88 29.789H164.286L162.921 24.862H162.245ZM171.445 26.5H172.42V33H171.445V32.545C170.795 32.935 170.154 33.13 169.521 33.13C168.637 33.13 168.048 32.9003 167.753 32.441C167.467 31.9817 167.324 31.1323 167.324 29.893V26.5H168.299V29.88C168.299 30.8247 168.381 31.4573 168.546 31.778C168.711 32.0987 169.083 32.259 169.664 32.259C169.95 32.259 170.24 32.22 170.535 32.142C170.83 32.0553 171.055 31.973 171.211 31.895L171.445 31.778V26.5ZM176.804 36.055C175.764 36.055 175.036 35.912 174.62 35.626C174.213 35.3487 174.009 34.8373 174.009 34.092C174.009 33.7367 174.087 33.4463 174.243 33.221C174.399 33.0043 174.664 32.7573 175.036 32.48C174.794 32.3153 174.672 32.0163 174.672 31.583C174.672 31.4357 174.781 31.1627 174.997 30.764L175.114 30.556C174.43 30.244 174.087 29.5897 174.087 28.593C174.087 27.111 174.898 26.37 176.518 26.37C176.934 26.37 177.32 26.4133 177.675 26.5L177.87 26.539L179.794 26.487V27.319L178.559 27.293C178.845 27.579 178.988 28.0123 178.988 28.593C178.988 29.4077 178.785 29.9797 178.377 30.309C177.979 30.6297 177.346 30.79 176.479 30.79C176.245 30.79 176.033 30.7727 175.842 30.738C175.686 31.1193 175.608 31.3663 175.608 31.479C175.608 31.7477 175.691 31.9167 175.855 31.986C176.02 32.0467 176.518 32.077 177.35 32.077C178.182 32.077 178.78 32.207 179.144 32.467C179.508 32.727 179.69 33.234 179.69 33.988C179.69 35.366 178.728 36.055 176.804 36.055ZM174.971 34.014C174.971 34.4733 175.097 34.7897 175.348 34.963C175.608 35.145 176.081 35.236 176.765 35.236C177.459 35.236 177.953 35.1407 178.247 34.95C178.551 34.7593 178.702 34.4387 178.702 33.988C178.702 33.546 178.594 33.26 178.377 33.13C178.161 33 177.736 32.935 177.103 32.935L175.699 32.87C175.413 33.078 175.218 33.26 175.114 33.416C175.019 33.572 174.971 33.7713 174.971 34.014ZM175.062 28.593C175.062 29.1043 175.175 29.4683 175.4 29.685C175.634 29.9017 176.016 30.01 176.544 30.01C177.073 30.01 177.45 29.9017 177.675 29.685C177.901 29.4683 178.013 29.1043 178.013 28.593C178.013 28.073 177.901 27.7047 177.675 27.488C177.45 27.2713 177.073 27.163 176.544 27.163C176.016 27.163 175.634 27.2757 175.4 27.501C175.175 27.7177 175.062 28.0817 175.062 28.593ZM187.951 24.42V33H186.95V25.538L184.74 26.994L184.285 26.24L187.015 24.42H187.951ZM193.379 32.246C194.948 32.246 195.736 31.2493 195.745 29.256C194.878 29.5853 194.133 29.75 193.509 29.75C191.637 29.75 190.701 28.879 190.701 27.137C190.701 26.2617 190.97 25.5683 191.507 25.057C192.044 24.5457 192.768 24.29 193.678 24.29C194.727 24.29 195.507 24.68 196.018 25.46C196.529 26.2313 196.785 27.371 196.785 28.879C196.785 30.3783 196.495 31.4617 195.914 32.129C195.342 32.7963 194.497 33.13 193.379 33.13C192.729 33.13 192.057 33.0693 191.364 32.948L191.026 32.896L191.117 32.09C191.897 32.194 192.651 32.246 193.379 32.246ZM193.587 28.866C194.116 28.866 194.727 28.749 195.42 28.515L195.758 28.398C195.732 26.2487 195.039 25.174 193.678 25.174C193.071 25.174 192.595 25.3517 192.248 25.707C191.91 26.0537 191.741 26.5303 191.741 27.137C191.741 28.2897 192.356 28.866 193.587 28.866ZM197.884 34.599L198.482 31.609H199.561L198.69 34.599H197.884ZM209.576 33H204.09V32.155L206.599 29.516C207.033 29.0653 207.349 28.723 207.548 28.489C207.748 28.255 207.925 27.9777 208.081 27.657C208.246 27.3363 208.328 27.0157 208.328 26.695C208.328 26.1403 208.177 25.7503 207.873 25.525C207.57 25.2997 207.098 25.187 206.456 25.187C205.893 25.187 205.265 25.2607 204.571 25.408L204.233 25.473L204.155 24.641C204.979 24.407 205.828 24.29 206.703 24.29C207.579 24.29 208.237 24.4763 208.679 24.849C209.13 25.213 209.355 25.7937 209.355 26.591C209.355 27.1977 209.221 27.7263 208.952 28.177C208.684 28.6277 208.22 29.1693 207.561 29.802L205.273 32.129H209.576V33ZM214.095 24.277C214.805 24.277 215.382 24.4113 215.824 24.68C216.76 25.2347 217.228 26.6213 217.228 28.84C217.228 30.4087 216.968 31.518 216.448 32.168C215.928 32.8093 215.148 33.13 214.108 33.13C213.068 33.13 212.283 32.8137 211.755 32.181C211.235 31.5397 210.975 30.4043 210.975 28.775C210.975 27.137 211.23 25.98 211.742 25.304C212.262 24.6193 213.046 24.277 214.095 24.277ZM214.108 25.174C213.614 25.174 213.224 25.278 212.938 25.486C212.322 25.9107 212.015 27.033 212.015 28.853C212.015 30.1357 212.184 31.024 212.522 31.518C212.86 32.0033 213.388 32.246 214.108 32.246C214.827 32.246 215.356 31.999 215.694 31.505C216.032 31.011 216.201 30.0967 216.201 28.762C216.201 27.4187 216.036 26.487 215.707 25.967C215.386 25.4383 214.853 25.174 214.108 25.174ZM222.799 24.42V33H221.798V25.538L219.588 26.994L219.133 26.24L221.863 24.42H222.799ZM228.228 32.246C229.796 32.246 230.585 31.2493 230.594 29.256C229.727 29.5853 228.982 29.75 228.358 29.75C226.486 29.75 225.55 28.879 225.55 27.137C225.55 26.2617 225.818 25.5683 226.356 25.057C226.893 24.5457 227.617 24.29 228.527 24.29C229.575 24.29 230.355 24.68 230.867 25.46C231.378 26.2313 231.634 27.371 231.634 28.879C231.634 30.3783 231.343 31.4617 230.763 32.129C230.191 32.7963 229.346 33.13 228.228 33.13C227.578 33.13 226.906 33.0693 226.213 32.948L225.875 32.896L225.966 32.09C226.746 32.194 227.5 32.246 228.228 32.246ZM228.436 28.866C228.964 28.866 229.575 28.749 230.269 28.515L230.607 28.398C230.581 26.2487 229.887 25.174 228.527 25.174C227.92 25.174 227.443 25.3517 227.097 25.707C226.759 26.0537 226.59 26.5303 226.59 27.137C226.59 28.2897 227.205 28.866 228.436 28.866Z" fill="white" fill-opacity="0.699465"/>
<path d="M165.831 16.06C165.831 17.1 165.531 17.88 164.931 18.4C164.341 18.91 163.536 19.165 162.516 19.165H162.396L162.186 20.905C161.546 20.875 161.226 20.84 161.226 20.8L161.436 19.105C160.796 19.045 160.176 18.955 159.576 18.835L159.276 18.775L159.441 17.485C160.231 17.595 160.956 17.67 161.616 17.71L162.021 14.605C160.981 14.325 160.246 13.98 159.816 13.57C159.386 13.16 159.171 12.515 159.171 11.635C159.171 10.755 159.461 10.085 160.041 9.625C160.631 9.165 161.441 8.935 162.471 8.935H162.741L162.996 6.925H163.956L163.686 9.01L165.606 9.28L165.471 10.57C164.761 10.49 164.111 10.43 163.521 10.39L163.146 13.285C164.156 13.575 164.856 13.91 165.246 14.29C165.636 14.67 165.831 15.26 165.831 16.06ZM160.776 11.635C160.776 12.005 160.876 12.285 161.076 12.475C161.286 12.665 161.666 12.85 162.216 13.03L162.561 10.345C161.371 10.365 160.776 10.795 160.776 11.635ZM164.211 16.15C164.211 15.81 164.116 15.545 163.926 15.355C163.746 15.165 163.421 15 162.951 14.86L162.576 17.74C163.666 17.7 164.211 17.17 164.211 16.15ZM172.754 9.1V19H171.089V10.99L168.764 12.49L167.999 11.245L171.224 9.1H172.754ZM176.633 9.625C177.273 9.165 178.143 8.935 179.243 8.935C180.343 8.935 181.218 9.165 181.868 9.625C182.528 10.075 182.858 10.725 182.858 11.575C182.858 12.175 182.763 12.63 182.573 12.94C182.393 13.24 182.048 13.55 181.538 13.87C182.048 14.2 182.418 14.54 182.648 14.89C182.888 15.23 183.008 15.705 183.008 16.315C183.008 17.315 182.663 18.04 181.973 18.49C181.283 18.94 180.373 19.165 179.243 19.165C176.763 19.165 175.523 18.27 175.523 16.48C175.523 15.81 175.638 15.295 175.868 14.935C176.098 14.575 176.463 14.22 176.963 13.87C176.493 13.56 176.163 13.24 175.973 12.91C175.783 12.57 175.688 12.12 175.688 11.56C175.688 10.72 176.003 10.075 176.633 9.625ZM177.308 16.12C177.308 17.15 177.958 17.665 179.258 17.665C180.568 17.665 181.223 17.14 181.223 16.09C181.223 15.4 180.803 14.925 179.963 14.665H178.523C177.713 14.925 177.308 15.41 177.308 16.12ZM181.073 11.815C181.073 10.895 180.473 10.435 179.273 10.435C178.073 10.435 177.473 10.895 177.473 11.815C177.473 12.415 177.823 12.89 178.523 13.24H179.963C180.703 12.89 181.073 12.415 181.073 11.815ZM183.856 20.845L184.576 17.14H186.376L185.176 20.845H183.856ZM192.213 19V17.23H187.758V15.955L190.368 9.1H192.213L189.453 15.775H192.213V12.865H193.893V15.775H194.973V17.23H193.893V19H192.213ZM202.931 19H196.556V17.575L199.001 15.055C199.741 14.295 200.261 13.7 200.561 13.27C200.861 12.84 201.011 12.37 201.011 11.86C201.011 11.34 200.866 10.97 200.576 10.75C200.286 10.53 199.811 10.42 199.151 10.42C198.531 10.42 197.846 10.49 197.096 10.63L196.721 10.69L196.616 9.37C197.586 9.08 198.591 8.935 199.631 8.935C201.701 8.935 202.736 9.855 202.736 11.695C202.736 12.415 202.576 13.04 202.256 13.57C201.946 14.1 201.386 14.74 200.576 15.49L198.461 17.545H202.931V19ZM211.205 9.1V10.57H206.615L206.36 13.18C207.04 12.87 207.71 12.715 208.37 12.715C210.49 12.715 211.55 13.705 211.55 15.685C211.55 16.805 211.255 17.665 210.665 18.265C210.085 18.865 209.26 19.165 208.19 19.165C207.74 19.165 207.23 19.12 206.66 19.03C206.09 18.95 205.635 18.87 205.295 18.79L204.785 18.655L204.965 17.395C206.145 17.595 207.155 17.695 207.995 17.695C208.575 17.695 209.025 17.535 209.345 17.215C209.665 16.895 209.825 16.44 209.825 15.85C209.825 15.26 209.685 14.835 209.405 14.575C209.125 14.315 208.76 14.185 208.31 14.185C207.5 14.185 206.84 14.285 206.33 14.485L206.06 14.59L205.01 14.365L205.28 9.1H211.205ZM213.253 19V16.84H215.008V19H213.253ZM223.277 10.6C222.307 10.46 221.427 10.39 220.637 10.39C219.847 10.39 219.257 10.635 218.867 11.125C218.477 11.615 218.277 12.3 218.267 13.18L218.612 13.06C219.332 12.83 219.937 12.715 220.427 12.715C222.667 12.715 223.787 13.765 223.787 15.865C223.787 16.945 223.477 17.765 222.857 18.325C222.237 18.885 221.332 19.165 220.142 19.165C218.952 19.165 218.052 18.725 217.442 17.845C216.842 16.955 216.542 15.69 216.542 14.05C216.542 10.64 217.882 8.935 220.562 8.935C221.312 8.935 222.122 9.025 222.992 9.205L223.427 9.295L223.277 10.6ZM218.537 14.515L218.252 14.62C218.272 16.68 218.932 17.71 220.232 17.71C220.822 17.71 221.272 17.55 221.582 17.23C221.902 16.91 222.062 16.465 222.062 15.895C222.062 15.325 221.907 14.9 221.597 14.62C221.287 14.33 220.852 14.185 220.292 14.185C219.742 14.185 219.157 14.295 218.537 14.515ZM228.041 17.71C229.561 17.71 230.331 16.75 230.351 14.83L229.991 14.95C229.231 15.21 228.621 15.34 228.161 15.34C227.081 15.34 226.256 15.085 225.686 14.575C225.116 14.055 224.831 13.28 224.831 12.25C224.831 11.22 225.146 10.41 225.776 9.82C226.416 9.23 227.281 8.935 228.371 8.935C229.621 8.935 230.551 9.38 231.161 10.27C231.771 11.16 232.076 12.475 232.076 14.215C232.076 15.955 231.731 17.215 231.041 17.995C230.361 18.775 229.361 19.165 228.041 19.165C227.291 19.165 226.481 19.075 225.611 18.895L225.176 18.805L225.326 17.5C226.296 17.64 227.201 17.71 228.041 17.71ZM228.296 13.87C228.866 13.87 229.451 13.76 230.051 13.54L230.366 13.435C230.346 11.405 229.681 10.39 228.371 10.39C227.801 10.39 227.356 10.555 227.036 10.885C226.716 11.215 226.556 11.665 226.556 12.235C226.556 13.325 227.136 13.87 228.296 13.87Z" fill="white"/>
</g>
<defs>
<filter id="filter0_i_0_4898" x="-275" y="12.2501" width="956.75" height="167.48" filterUnits="userSpaceOnUse" color-interpolation-filters="sRGB">
<feFlood flood-opacity="0" result="BackgroundImageFix"/>
<feBlend mode="normal" in="SourceGraphic" in2="BackgroundImageFix" result="shape"/>
<feColorMatrix in="SourceAlpha" type="matrix" values="0 0 0 0 0 0 0 0 0 0 0 0 0 0 0 0 0 0 127 0" result="hardAlpha"/>
<feOffset dy="-1"/>
<feGaussianBlur stdDeviation="5.5"/>
<feComposite in2="hardAlpha" operator="arithmetic" k2="-1" k3="1"/>
<feColorMatrix type="matrix" values="0 0 0 0 0.196078 0 0 0 0 0.196078 0 0 0 0 0.364706 0 0 0 0.01 0"/>
<feBlend mode="normal" in2="shape" result="effect1_innerShadow_0_4898"/>
</filter>
<clipPath id="clip0_0_4898">
<rect width="111" height="47" fill="white" transform="translate(140)"/>
</clipPath>
</defs>
</svg>
