<svg width="25" height="25" viewBox="0 0 25 25" fill="none" xmlns="http://www.w3.org/2000/svg">
<path fill-rule="evenodd" clip-rule="evenodd" d="M11.1458 0.625L2.8125 4.79167C1.66666 5.3125 1.04166 6.35417 1.04166 7.5V17.3958C1.04166 18.6458 1.77083 19.6875 2.8125 20.2083L11.1458 24.375C11.5625 24.5833 11.9792 24.6875 12.5 24.6875C12.9167 24.6875 13.4375 24.5833 13.8542 24.375L22.1875 20.2083C23.3333 19.6875 23.9583 18.5417 23.9583 17.3958V7.5C23.9583 6.35417 23.3333 5.3125 22.2917 4.79167L13.9583 0.625C13.0208 0.208333 11.9792 0.208333 11.1458 0.625ZM12.5 2.29167C12.6042 2.29167 12.8125 2.29167 12.9167 2.39583L20.625 6.25L12.5 10.3125L4.37499 6.25L12.0833 2.39583C12.1875 2.29167 12.2917 2.29167 12.5 2.29167ZM21.3542 18.4375C21.6667 18.2292 21.875 17.8125 21.875 17.5V7.91667L13.5417 12.0833V22.2917L21.3542 18.4375ZM11.4583 22.2917L3.74999 18.4375C3.33333 18.2292 3.125 17.9167 3.125 17.5V7.91667L11.4583 12.0833V22.2917Z" fill="black"/>
<mask id="mask0_39_4685" style="mask-type:luminance" maskUnits="userSpaceOnUse" x="1" y="0" width="23" height="25">
<path fill-rule="evenodd" clip-rule="evenodd" d="M11.1458 0.625L2.8125 4.79167C1.66666 5.3125 1.04166 6.35417 1.04166 7.5V17.3958C1.04166 18.6458 1.77083 19.6875 2.8125 20.2083L11.1458 24.375C11.5625 24.5833 11.9792 24.6875 12.5 24.6875C12.9167 24.6875 13.4375 24.5833 13.8542 24.375L22.1875 20.2083C23.3333 19.6875 23.9583 18.5417 23.9583 17.3958V7.5C23.9583 6.35417 23.3333 5.3125 22.2917 4.79167L13.9583 0.625C13.0208 0.208333 11.9792 0.208333 11.1458 0.625ZM12.5 2.29167C12.6042 2.29167 12.8125 2.29167 12.9167 2.39583L20.625 6.25L12.5 10.3125L4.37499 6.25L12.0833 2.39583C12.1875 2.29167 12.2917 2.29167 12.5 2.29167ZM21.3542 18.4375C21.6667 18.2292 21.875 17.8125 21.875 17.5V7.91667L13.5417 12.0833V22.2917L21.3542 18.4375ZM11.4583 22.2917L3.74999 18.4375C3.33333 18.2292 3.125 17.9167 3.125 17.5V7.91667L11.4583 12.0833V22.2917Z" fill="white"/>
</mask>
<g mask="url(#mask0_39_4685)">
<rect width="25" height="25" transform="matrix(-1 0 0 1 25 0)" fill="#B5BBC9"/>
</g>
</svg>
