<svg width="25" height="25" viewBox="0 0 25 25" fill="none" xmlns="http://www.w3.org/2000/svg">
<path fill-rule="evenodd" clip-rule="evenodd" d="M3.85416 2.39584C3.4375 1.97918 2.8125 1.97918 2.39583 2.39584C1.97916 2.81251 1.97916 3.43751 2.39583 3.85418L7.91666 9.37501H4.16666C3.54166 9.37501 3.125 9.79168 3.125 10.4167C3.125 11.0417 3.54166 11.4583 4.16666 11.4583H10.4167C10.5208 11.4583 10.7292 11.4583 10.8333 11.3542C11.0417 11.25 11.25 11.0417 11.3542 10.8333C11.4583 10.7292 11.4583 10.5208 11.4583 10.4167V4.16668C11.4583 3.54168 11.0417 3.12501 10.4167 3.12501C9.79166 3.12501 9.375 3.54168 9.375 4.16668V7.91668L3.85416 2.39584ZM13.5417 14.5833C13.5417 14.4792 13.5417 14.2708 13.6458 14.1667C13.75 13.9583 13.9583 13.75 14.1667 13.6458C14.2708 13.5417 14.4792 13.5417 14.5833 13.5417H20.8333C21.4583 13.5417 21.875 13.9583 21.875 14.5833C21.875 15.2083 21.4583 15.625 20.8333 15.625H17.0833L22.6042 21.1458C23.0208 21.5625 23.0208 22.1875 22.6042 22.6042C22.3958 22.8125 22.1875 22.9167 21.875 22.9167C21.5625 22.9167 21.3542 22.8125 21.1458 22.6042L15.625 17.0833V20.8333C15.625 21.4583 15.2083 21.875 14.5833 21.875C13.9583 21.875 13.5417 21.4583 13.5417 20.8333V14.5833Z" fill="black"/>
<mask id="mask0_39_4676" style="mask-type:luminance" maskUnits="userSpaceOnUse" x="2" y="2" width="21" height="21">
<path fill-rule="evenodd" clip-rule="evenodd" d="M3.85416 2.39584C3.4375 1.97918 2.8125 1.97918 2.39583 2.39584C1.97916 2.81251 1.97916 3.43751 2.39583 3.85418L7.91666 9.37501H4.16666C3.54166 9.37501 3.125 9.79168 3.125 10.4167C3.125 11.0417 3.54166 11.4583 4.16666 11.4583H10.4167C10.5208 11.4583 10.7292 11.4583 10.8333 11.3542C11.0417 11.25 11.25 11.0417 11.3542 10.8333C11.4583 10.7292 11.4583 10.5208 11.4583 10.4167V4.16668C11.4583 3.54168 11.0417 3.12501 10.4167 3.12501C9.79166 3.12501 9.375 3.54168 9.375 4.16668V7.91668L3.85416 2.39584ZM13.5417 14.5833C13.5417 14.4792 13.5417 14.2708 13.6458 14.1667C13.75 13.9583 13.9583 13.75 14.1667 13.6458C14.2708 13.5417 14.4792 13.5417 14.5833 13.5417H20.8333C21.4583 13.5417 21.875 13.9583 21.875 14.5833C21.875 15.2083 21.4583 15.625 20.8333 15.625H17.0833L22.6042 21.1458C23.0208 21.5625 23.0208 22.1875 22.6042 22.6042C22.3958 22.8125 22.1875 22.9167 21.875 22.9167C21.5625 22.9167 21.3542 22.8125 21.1458 22.6042L15.625 17.0833V20.8333C15.625 21.4583 15.2083 21.875 14.5833 21.875C13.9583 21.875 13.5417 21.4583 13.5417 20.8333V14.5833Z" fill="white"/>
</mask>
<g mask="url(#mask0_39_4676)">
<rect width="25" height="25" transform="matrix(-1 0 0 1 25 0)" fill="#B5BBC9"/>
</g>
</svg>
