<svg width="20" height="20" viewBox="0 0 20 20" fill="none" xmlns="http://www.w3.org/2000/svg">
<path fill-rule="evenodd" clip-rule="evenodd" d="M19.1667 9.99999C19.1667 15.0626 15.0626 19.1667 10 19.1667C4.9374 19.1667 0.833344 15.0626 0.833344 9.99999C0.833344 4.93738 4.9374 0.833328 10 0.833328C15.0626 0.833328 19.1667 4.93738 19.1667 9.99999ZM10.6869 5.36862C10.7656 5.09576 11.0413 4.94053 11.3036 5.02141C11.4313 5.05858 11.5395 5.14736 11.6039 5.26801C11.6684 5.38865 11.6839 5.53113 11.647 5.66375L10.3135 10.5247C10.288 10.6215 10.2359 10.7084 10.1635 10.7747L7.49652 13.2051C7.28798 13.3935 6.97271 13.3718 6.78977 13.1565C6.60893 12.9393 6.62975 12.611 6.83644 12.4204L9.39342 10.0907L10.6869 5.36862Z" fill="#FFA500"/>
<mask id="mask0_0_3843" style="mask-type:luminance" maskUnits="userSpaceOnUse" x="0" y="0" width="20" height="20">
<path fill-rule="evenodd" clip-rule="evenodd" d="M19.1667 9.99999C19.1667 15.0626 15.0626 19.1667 10 19.1667C4.9374 19.1667 0.833344 15.0626 0.833344 9.99999C0.833344 4.93738 4.9374 0.833328 10 0.833328C15.0626 0.833328 19.1667 4.93738 19.1667 9.99999ZM10.6869 5.36862C10.7656 5.09576 11.0413 4.94053 11.3036 5.02141C11.4313 5.05858 11.5395 5.14736 11.6039 5.26801C11.6684 5.38865 11.6839 5.53113 11.647 5.66375L10.3135 10.5247C10.288 10.6215 10.2359 10.7084 10.1635 10.7747L7.49652 13.2051C7.28798 13.3935 6.97271 13.3718 6.78977 13.1565C6.60893 12.9393 6.62975 12.611 6.83644 12.4204L9.39342 10.0907L10.6869 5.36862Z" fill="white"/>
</mask>
<g mask="url(#mask0_0_3843)">
<rect width="20" height="20" fill="#FDB32A"/>
</g>
</svg>
