<svg width="22" height="22" viewBox="0 0 22 22" fill="none" xmlns="http://www.w3.org/2000/svg">
<path fill-rule="evenodd" clip-rule="evenodd" d="M11 21.5C16.799 21.5 21.5 16.799 21.5 11C21.5 5.20101 16.799 0.5 11 0.5C5.20101 0.5 0.5 5.20101 0.5 11C0.5 16.799 5.20101 21.5 11 21.5ZM14.3564 7.96713C14.2037 7.97198 14.059 8.03613 13.9529 8.14597C12.5024 9.59955 11.1812 11.0336 9.77107 12.4653L7.98738 11.0393C7.82356 10.9082 7.60227 10.8745 7.40686 10.9509C7.21146 11.0272 7.07163 11.202 7.04004 11.4094C7.00845 11.6168 7.08991 11.8253 7.25373 11.9564L9.45468 13.7171C9.68928 13.9047 10.0276 13.8849 10.2388 13.6713C11.816 12.0907 13.2344 10.5323 14.7874 8.9759C14.9626 8.80674 15.0151 8.54697 14.9194 8.32302C14.8238 8.09907 14.5997 7.95747 14.3564 7.96713Z" fill="#3783F5"/>
</svg>
