<svg width="34" height="34" viewBox="0 0 34 34" fill="none" xmlns="http://www.w3.org/2000/svg">
<path fill-rule="evenodd" clip-rule="evenodd" d="M17.5167 23.4789V23.4789L17.5167 23.479V23.4789L27.95 17.3118L17.5167 0.000314107L17.5167 0.000244141L17.5165 0.000615803L7.08337 17.3119L17.5167 23.4789ZM17.5167 33.9926L17.5166 33.9924L7.08337 19.2902L17.5167 25.4543L27.9562 19.2904L17.5167 33.9926L17.5167 33.9926Z" fill="#0D1F3C"/>
<mask id="mask0_160_8824" style="mask-type:luminance" maskUnits="userSpaceOnUse" x="7" y="0" width="21" height="34">
<path fill-rule="evenodd" clip-rule="evenodd" d="M17.5167 23.4789V23.4789L17.5167 23.479V23.4789L27.95 17.3118L17.5167 0.000314107L17.5167 0.000244141L17.5165 0.000615803L7.08337 17.3119L17.5167 23.4789ZM17.5167 33.9926L17.5166 33.9924L7.08337 19.2902L17.5167 25.4543L27.9562 19.2904L17.5167 33.9926L17.5167 33.9926Z" fill="white"/>
</mask>
<g mask="url(#mask0_160_8824)">
</g>
</svg>
