<svg width="34" height="34" viewBox="0 0 34 34" fill="none" xmlns="http://www.w3.org/2000/svg">
<path fill-rule="evenodd" clip-rule="evenodd" d="M33.9967 4.87627V4.12143L5.3347 18.3944C5.19082 17.2951 5.19986 16.2285 5.36553 15.1673C5.67823 13.1602 6.46409 11.3441 7.77354 9.76292C10.0086 7.06395 12.9138 5.60091 16.4643 5.40882C18.6412 5.29173 20.6974 5.76492 22.615 6.78564C22.7203 6.84112 22.7997 6.83764 22.9028 6.78564C23.4695 6.49972 24.0376 6.21688 24.6058 5.93404C24.8308 5.82203 25.0558 5.71003 25.2807 5.59783C25.3127 5.58188 25.3438 5.56414 25.3782 5.5445C25.3963 5.5342 25.4153 5.52338 25.4358 5.51202C25.4158 5.49756 25.3976 5.4841 25.3803 5.4714C25.345 5.44535 25.314 5.42255 25.2822 5.40107C21.8262 3.08213 18.0517 2.33387 13.9586 3.15632C11.44 3.6624 9.23413 4.80329 7.33066 6.48983C5.77292 7.8735 4.58213 9.51022 3.75831 11.4C3.12921 12.8437 2.74348 14.3493 2.66208 15.9181C2.63567 16.4255 2.64465 16.9346 2.65362 17.4437C2.65717 17.645 2.66072 17.8464 2.66208 18.0476C2.67095 19.1338 2.18604 19.9333 1.20738 20.4462C0.858778 20.629 0.506065 20.8035 0.149789 20.9726C0.0411247 21.0241 -0.000943199 21.082 1.60052e-05 21.2035C0.00468873 21.8601 0.00425859 22.5167 0.00382849 23.1732C0.00370362 23.3638 0.00357876 23.5544 0.00357876 23.745C0.00357876 23.777 0.00604111 23.8089 0.00885854 23.8453C0.0102969 23.864 0.0118278 23.8838 0.0131708 23.9054C0.0407902 23.8923 0.0657728 23.8808 0.0890964 23.87C0.123284 23.8543 0.153907 23.8401 0.184046 23.8252C2.17472 22.8343 4.16529 21.8433 6.15578 20.8521L26.9262 10.51C29.2264 9.36114 31.5285 8.21601 33.8325 7.07464C33.9613 7.01088 34.0015 6.9399 34 6.80369C33.9946 6.32912 33.9954 5.85456 33.9961 5.37994C33.9964 5.21206 33.9967 5.04417 33.9967 4.87627ZM33.997 11.8322V9.86504C33.9726 9.87668 33.9508 9.88697 33.9309 9.89637C33.8845 9.91826 33.8484 9.93531 33.8131 9.95326L16.7953 18.4247C11.2651 21.1806 5.73319 23.933 0.199577 26.682C0.0472053 26.7577 -0.00184958 26.8399 6.87705e-05 27.0047C0.00745641 27.6051 0.00639817 28.2055 0.00533986 28.8061C0.00496523 29.0187 0.00459059 29.2312 0.00459059 29.4438V29.6522L28.6525 15.3884C28.6571 15.4002 28.6611 15.4096 28.6646 15.4175C28.6706 15.4314 28.6747 15.4407 28.6758 15.4504C28.8228 16.6558 28.7927 17.8559 28.5591 19.0486C28.1635 21.0681 27.286 22.8658 25.8947 24.4111C23.6853 26.8652 20.897 28.1929 17.5564 28.3735C15.367 28.4918 13.3 28.0185 11.3719 26.9915C11.2764 26.9407 11.2035 26.9327 11.1013 26.9844C10.5285 27.2743 9.95355 27.5602 9.37865 27.8461C9.15505 27.9573 8.93146 28.0685 8.70799 28.18C8.67633 28.1957 8.64583 28.2135 8.6111 28.2338C8.59367 28.244 8.57517 28.2548 8.55494 28.2663C9.24273 28.7593 9.9759 29.1889 10.745 29.5498C13.4412 30.8055 16.2651 31.2155 19.2168 30.7796C21.3528 30.4641 23.3124 29.7002 25.0922 28.5105C27.1908 27.108 28.8002 25.2935 29.9205 23.0669C30.675 21.5627 31.1379 19.977 31.3091 18.3096C31.3966 17.4584 31.3742 16.6077 31.3435 15.7546C31.3037 14.6402 31.8186 13.8255 32.8279 13.3084C33.1732 13.1311 33.5209 12.9587 33.8711 12.7914C33.9684 12.745 34.0035 12.6887 33.9998 12.5826C33.9936 12.4049 33.9948 12.2269 33.996 12.0489C33.9965 11.9766 33.997 11.9044 33.997 11.8322Z" fill="#0D1F3C"/>
<mask id="mask0_160_8856" style="mask-type:luminance" maskUnits="userSpaceOnUse" x="0" y="2" width="34" height="29">
<path fill-rule="evenodd" clip-rule="evenodd" d="M33.9967 4.87627V4.12143L5.3347 18.3944C5.19082 17.2951 5.19986 16.2285 5.36553 15.1673C5.67823 13.1602 6.46409 11.3441 7.77354 9.76292C10.0086 7.06395 12.9138 5.60091 16.4643 5.40882C18.6412 5.29173 20.6974 5.76492 22.615 6.78564C22.7203 6.84112 22.7997 6.83764 22.9028 6.78564C23.4695 6.49972 24.0376 6.21688 24.6058 5.93404C24.8308 5.82203 25.0558 5.71003 25.2807 5.59783C25.3127 5.58188 25.3438 5.56414 25.3782 5.5445C25.3963 5.5342 25.4153 5.52338 25.4358 5.51202C25.4158 5.49756 25.3976 5.4841 25.3803 5.4714C25.345 5.44535 25.314 5.42255 25.2822 5.40107C21.8262 3.08213 18.0517 2.33387 13.9586 3.15632C11.44 3.6624 9.23413 4.80329 7.33066 6.48983C5.77292 7.8735 4.58213 9.51022 3.75831 11.4C3.12921 12.8437 2.74348 14.3493 2.66208 15.9181C2.63567 16.4255 2.64465 16.9346 2.65362 17.4437C2.65717 17.645 2.66072 17.8464 2.66208 18.0476C2.67095 19.1338 2.18604 19.9333 1.20738 20.4462C0.858778 20.629 0.506065 20.8035 0.149789 20.9726C0.0411247 21.0241 -0.000943199 21.082 1.60052e-05 21.2035C0.00468873 21.8601 0.00425859 22.5167 0.00382849 23.1732C0.00370362 23.3638 0.00357876 23.5544 0.00357876 23.745C0.00357876 23.777 0.00604111 23.8089 0.00885854 23.8453C0.0102969 23.864 0.0118278 23.8838 0.0131708 23.9054C0.0407902 23.8923 0.0657728 23.8808 0.0890964 23.87C0.123284 23.8543 0.153907 23.8401 0.184046 23.8252C2.17472 22.8343 4.16529 21.8433 6.15578 20.8521L26.9262 10.51C29.2264 9.36114 31.5285 8.21601 33.8325 7.07464C33.9613 7.01088 34.0015 6.9399 34 6.80369C33.9946 6.32912 33.9954 5.85456 33.9961 5.37994C33.9964 5.21206 33.9967 5.04417 33.9967 4.87627ZM33.997 11.8322V9.86504C33.9726 9.87668 33.9508 9.88697 33.9309 9.89637C33.8845 9.91826 33.8484 9.93531 33.8131 9.95326L16.7953 18.4247C11.2651 21.1806 5.73319 23.933 0.199577 26.682C0.0472053 26.7577 -0.00184958 26.8399 6.87705e-05 27.0047C0.00745641 27.6051 0.00639817 28.2055 0.00533986 28.8061C0.00496523 29.0187 0.00459059 29.2312 0.00459059 29.4438V29.6522L28.6525 15.3884C28.6571 15.4002 28.6611 15.4096 28.6646 15.4175C28.6706 15.4314 28.6747 15.4407 28.6758 15.4504C28.8228 16.6558 28.7927 17.8559 28.5591 19.0486C28.1635 21.0681 27.286 22.8658 25.8947 24.4111C23.6853 26.8652 20.897 28.1929 17.5564 28.3735C15.367 28.4918 13.3 28.0185 11.3719 26.9915C11.2764 26.9407 11.2035 26.9327 11.1013 26.9844C10.5285 27.2743 9.95355 27.5602 9.37865 27.8461C9.15505 27.9573 8.93146 28.0685 8.70799 28.18C8.67633 28.1957 8.64583 28.2135 8.6111 28.2338C8.59367 28.244 8.57517 28.2548 8.55494 28.2663C9.24273 28.7593 9.9759 29.1889 10.745 29.5498C13.4412 30.8055 16.2651 31.2155 19.2168 30.7796C21.3528 30.4641 23.3124 29.7002 25.0922 28.5105C27.1908 27.108 28.8002 25.2935 29.9205 23.0669C30.675 21.5627 31.1379 19.977 31.3091 18.3096C31.3966 17.4584 31.3742 16.6077 31.3435 15.7546C31.3037 14.6402 31.8186 13.8255 32.8279 13.3084C33.1732 13.1311 33.5209 12.9587 33.8711 12.7914C33.9684 12.745 34.0035 12.6887 33.9998 12.5826C33.9936 12.4049 33.9948 12.2269 33.996 12.0489C33.9965 11.9766 33.997 11.9044 33.997 11.8322Z" fill="white"/>
</mask>
<g mask="url(#mask0_160_8856)">
</g>
</svg>
